# xmcd
#
# Track frame offsets: 
#        150
#        20346
#        35943
#        49647
#        72852
#        94289
#        111071
#        122930
#        139831
#
# Disc length: 2076 seconds
#
# Revision: 0
# Processed by: cddbd v1.5.2PL0 Copyright (c) Steve Scherf et al.
# Submitted via: ExactAudioCopy v1.0b3
#
DISCID=80081a09
DTITLE=Ronny Lee - Texas Blues
DYEAR=1999
DGENRE=Blues
TTITLE0=Tropical Depression
TTITLE1=All Mixed Up
TTITLE2=Blue Ford Galaxy
TTITLE3=Who's Holding You
TTITLE4=No Telephones
TTITLE5=Nothin' but a Ho'
TTITLE6=What in the World?
TTITLE7=A Little More Time
TTITLE8=I Won't Be Here
EXTD=
EXTT0=
EXTT1=
EXTT2=
EXTT3=
EXTT4=
EXTT5=
EXTT6=
EXTT7=
EXTT8=
PLAYORDER=
